<svg width="34" height="34" viewBox="0 0 34 34" fill="none" xmlns="http://www.w3.org/2000/svg">
<g filter="url(#filter0_d_1145_12985)">
<circle cx="17" cy="17" r="13" fill="white"/>
<circle cx="17" cy="17" r="12" stroke="black" stroke-width="2"/>
</g>
<path d="M10 17H24" stroke="#747474" stroke-width="4"/>
<path d="M8.34812 17.3517C8.15528 17.1569 8.15528 16.8431 8.34812 16.6483L13.1446 11.8021C13.4589 11.4846 14 11.7071 14 12.1538L14 21.8462C14 22.2929 13.4589 22.5154 13.1446 22.1979L8.34812 17.3517Z" fill="#747474"/>
<path d="M25.6519 16.6483C25.8447 16.8431 25.8447 17.1569 25.6519 17.3517L20.8554 22.1979C20.5411 22.5154 20 22.2929 20 21.8462L20 12.1538C20 11.7071 20.5411 11.4846 20.8554 11.8021L25.6519 16.6483Z" fill="#747474"/>
<defs>
<filter id="filter0_d_1145_12985" x="0" y="0" width="34" height="34" filterUnits="userSpaceOnUse" color-interpolation-filters="sRGB">
<feFlood flood-opacity="0" result="BackgroundImageFix"/>
<feColorMatrix in="SourceAlpha" type="matrix" values="0 0 0 0 0 0 0 0 0 0 0 0 0 0 0 0 0 0 127 0" result="hardAlpha"/>
<feOffset/>
<feGaussianBlur stdDeviation="2"/>
<feComposite in2="hardAlpha" operator="out"/>
<feColorMatrix type="matrix" values="0 0 0 0 0 0 0 0 0 0 0 0 0 0 0 0 0 0 0.5 0"/>
<feBlend mode="normal" in2="BackgroundImageFix" result="effect1_dropShadow_1145_12985"/>
<feBlend mode="normal" in="SourceGraphic" in2="effect1_dropShadow_1145_12985" result="shape"/>
</filter>
</defs>
</svg>
