<svg width="34" height="34" viewBox="0 0 34 34" fill="none" xmlns="http://www.w3.org/2000/svg">
<g filter="url(#filter0_d_1145_12986)">
<circle cx="17" cy="17" r="13" transform="rotate(-90 17 17)" fill="white"/>
<circle cx="17" cy="17" r="12" transform="rotate(-90 17 17)" stroke="black" stroke-width="2"/>
</g>
<path d="M17 24L17 10" stroke="#747474" stroke-width="4"/>
<path d="M17.3517 25.6519C17.1569 25.8447 16.8431 25.8447 16.6483 25.6519L11.8021 20.8554C11.4846 20.5411 11.7071 20 12.1538 20L21.8462 20C22.2929 20 22.5154 20.5411 22.1979 20.8554L17.3517 25.6519Z" fill="#747474"/>
<path d="M16.6483 8.34812C16.8431 8.15528 17.1569 8.15528 17.3517 8.34812L22.1979 13.1446C22.5154 13.4589 22.2929 14 21.8462 14L12.1538 14C11.7071 14 11.4846 13.4589 11.8021 13.1446L16.6483 8.34812Z" fill="#747474"/>
<defs>
<filter id="filter0_d_1145_12986" x="0" y="0" width="34" height="34" filterUnits="userSpaceOnUse" color-interpolation-filters="sRGB">
<feFlood flood-opacity="0" result="BackgroundImageFix"/>
<feColorMatrix in="SourceAlpha" type="matrix" values="0 0 0 0 0 0 0 0 0 0 0 0 0 0 0 0 0 0 127 0" result="hardAlpha"/>
<feOffset/>
<feGaussianBlur stdDeviation="2"/>
<feComposite in2="hardAlpha" operator="out"/>
<feColorMatrix type="matrix" values="0 0 0 0 0 0 0 0 0 0 0 0 0 0 0 0 0 0 0.5 0"/>
<feBlend mode="normal" in2="BackgroundImageFix" result="effect1_dropShadow_1145_12986"/>
<feBlend mode="normal" in="SourceGraphic" in2="effect1_dropShadow_1145_12986" result="shape"/>
</filter>
</defs>
</svg>
