<svg width="152" height="152" viewBox="0 0 152 152" fill="none" xmlns="http://www.w3.org/2000/svg">
<g filter="url(#filter0_d_1523_7713)">
<path d="M64.5136 57.4154C62.2053 49.7324 67.9669 42 76 42C84.0331 42 89.7947 49.7324 87.4864 57.4154L81.1873 78.3815C80.9044 79.3229 80.763 79.7937 80.5451 80.1813C79.9851 81.1774 79.0274 81.8889 77.911 82.1383C77.4766 82.2353 76.9844 82.2353 76 82.2353C75.0156 82.2353 74.5234 82.2353 74.089 82.1383C72.9726 81.8889 72.0149 81.1774 71.4549 80.1813C71.237 79.7937 71.0956 79.3229 70.8127 78.3815L64.5136 57.4154Z" fill="#505050"/>
<path d="M84.0589 102.353C84.0589 106.797 80.4508 110.4 76 110.4C71.5492 110.4 67.9411 106.797 67.9411 102.353C67.9411 97.9087 71.5492 94.3059 76 94.3059C80.4508 94.3059 84.0589 97.9087 84.0589 102.353Z" fill="#505050"/>
</g>
<g filter="url(#filter1_d_1523_7713)">
<path fill-rule="evenodd" clip-rule="evenodd" d="M76 148C115.765 148 148 115.765 148 76C148 36.2355 115.765 4 76 4C36.2355 4 4 36.2355 4 76C4 115.765 36.2355 148 76 148ZM76 131C106.376 131 131 106.376 131 76C131 45.6243 106.376 21 76 21C45.6243 21 21 45.6243 21 76C21 106.376 45.6243 131 76 131Z" fill="url(#paint0_linear_1523_7713)"/>
</g>
<defs>
<filter id="filter0_d_1523_7713" x="60" y="38" width="32" height="76.4004" filterUnits="userSpaceOnUse" color-interpolation-filters="sRGB">
<feFlood flood-opacity="0" result="BackgroundImageFix"/>
<feColorMatrix in="SourceAlpha" type="matrix" values="0 0 0 0 0 0 0 0 0 0 0 0 0 0 0 0 0 0 127 0" result="hardAlpha"/>
<feOffset/>
<feGaussianBlur stdDeviation="2"/>
<feComposite in2="hardAlpha" operator="out"/>
<feColorMatrix type="matrix" values="0 0 0 0 0 0 0 0 0 0 0 0 0 0 0 0 0 0 0.5 0"/>
<feBlend mode="normal" in2="BackgroundImageFix" result="effect1_dropShadow_1523_7713"/>
<feBlend mode="normal" in="SourceGraphic" in2="effect1_dropShadow_1523_7713" result="shape"/>
</filter>
<filter id="filter1_d_1523_7713" x="0" y="0" width="152" height="152" filterUnits="userSpaceOnUse" color-interpolation-filters="sRGB">
<feFlood flood-opacity="0" result="BackgroundImageFix"/>
<feColorMatrix in="SourceAlpha" type="matrix" values="0 0 0 0 0 0 0 0 0 0 0 0 0 0 0 0 0 0 127 0" result="hardAlpha"/>
<feOffset/>
<feGaussianBlur stdDeviation="2"/>
<feComposite in2="hardAlpha" operator="out"/>
<feColorMatrix type="matrix" values="0 0 0 0 0 0 0 0 0 0 0 0 0 0 0 0 0 0 0.5 0"/>
<feBlend mode="normal" in2="BackgroundImageFix" result="effect1_dropShadow_1523_7713"/>
<feBlend mode="normal" in="SourceGraphic" in2="effect1_dropShadow_1523_7713" result="shape"/>
</filter>
<linearGradient id="paint0_linear_1523_7713" x1="130.5" y1="24" x2="39.5" y2="105.5" gradientUnits="userSpaceOnUse">
<stop stop-color="#FF0000"/>
<stop offset="1" stop-color="#FF9C9C"/>
</linearGradient>
</defs>
</svg>
