<svg width="83" height="28" viewBox="0 0 83 28" fill="none" xmlns="http://www.w3.org/2000/svg">
<path d="M26.3585 7.96067L18.8329 0L33.3784 6.35459L22.9885 20.2934L31.3784 28L15.9238 22.5663L26.3585 7.96067Z" fill="#514EDA"/>
<path d="M2.45455 4.41016H16.1455L15.7091 8.09198H6.10909L5.56364 12.5647H14.0455L13.5818 16.3283H5.1L4.55454 20.692H14.5364L14.0727 24.4829H0L2.45455 4.41016Z" fill="#514EDA"/>
<path d="M51.3042 4.41016H64.9951L64.5587 8.09198H54.9587L54.4132 12.5647H62.8951L62.4314 16.3283H53.9496L53.4042 20.692H63.386L62.9223 24.4829H48.8496L51.3042 4.41016Z" fill="#514EDA"/>
<path d="M36.394 4.41016H48.9395L48.4758 8.17379H40.0213L39.4758 12.8102H46.7849L46.294 16.6011H38.9849L38.0304 24.4829H33.9395L36.394 4.41016Z" fill="#514EDA"/>
<path d="M68.394 4.41016H82.0849L81.6485 8.09198H72.0485L71.5031 12.5647H79.9849L79.5213 16.3283H71.0395L70.494 20.692H80.4758L80.0122 24.4829H65.9395L68.394 4.41016Z" fill="#514EDA"/>
</svg>
