<svg width="232" height="280" viewBox="0 0 232 280" fill="none" xmlns="http://www.w3.org/2000/svg">
<g filter="url(#filter0_i_3354_14927)">
<rect width="232" height="280" rx="20" fill="white"/>
</g>
<rect x="16" y="16" width="200" height="200" rx="12" fill="url(#paint0_linear_3354_14927)" fill-opacity="0.5"/>
<g filter="url(#filter1_d_3354_14927)">
<path d="M159.875 68.75L153.125 63.6875L151.438 62V38.375L156.832 42.4206C158.642 43.3854 159.875 45.2925 159.875 47.4875V68.75Z" fill="url(#paint1_linear_3354_14927)"/>
<path d="M72.125 63.6875L72.125 43.4875C72.125 39.732 75.1695 36.6875 78.925 36.6875L146.325 36.6875C150.081 36.6875 153.125 39.732 153.125 43.4875L153.125 63.6875L72.125 63.6875Z" fill="white"/>
<path opacity="0.5" d="M72.125 63.6875L72.125 43.4875C72.125 39.732 75.1695 36.6875 78.925 36.6875L146.325 36.6875C150.081 36.6875 153.125 39.732 153.125 43.4875L153.125 63.6875L72.125 63.6875Z" fill="url(#paint2_linear_3354_14927)"/>
<path d="M159.875 68.75L153.125 63.6875H72.125L78.875 68.75H159.875Z" fill="url(#paint3_linear_3354_14927)"/>
</g>
<g filter="url(#filter2_d_3354_14927)">
<path d="M187.719 97.4375L180.969 92.375H99.9688L106.719 97.4375H187.719Z" fill="url(#paint4_linear_3354_14927)"/>
<path d="M180.969 68.75V90.2656V92.375L187.719 97.4375V73.8125L180.969 68.75Z" fill="url(#paint5_linear_3354_14927)"/>
<path d="M99.9688 92.375L99.9688 68.75L180.969 68.75L180.969 92.375L99.9688 92.375Z" fill="white"/>
<rect x="106.719" y="75.5" width="67.5" height="10.125" rx="1" fill="url(#paint6_linear_3354_14927)"/>
</g>
<g filter="url(#filter3_d_3354_14927)">
<path d="M124.438 141.312L117.688 136.25H36.6875L43.4375 141.312H124.438Z" fill="url(#paint7_linear_3354_14927)"/>
<rect x="36.6875" y="95.75" width="81" height="40.5" fill="white"/>
<path d="M124.438 100.812L117.688 95.75V136.25L124.438 141.312V100.812Z" fill="url(#paint8_linear_3354_14927)"/>
<path d="M43.4375 103.344C43.4375 102.878 43.8153 102.5 44.2812 102.5H110.094C110.56 102.5 110.938 102.878 110.938 103.344V128.656C110.938 129.122 110.56 129.5 110.094 129.5H44.2812C43.8153 129.5 43.4375 129.122 43.4375 128.656V103.344Z" fill="url(#paint9_linear_3354_14927)" fill-opacity="0.5"/>
</g>
<g filter="url(#filter4_d_3354_14927)">
<path d="M174.219 158.188L167.469 153.125H86.4688L93.2188 158.188H174.219Z" fill="url(#paint10_linear_3354_14927)"/>
<path d="M167.469 139.625V151.016V153.125L174.219 158.188V144.688L167.469 139.625Z" fill="url(#paint11_linear_3354_14927)"/>
<path d="M86.4688 153.125L86.4688 139.625L167.469 139.625L167.469 153.125L86.4688 153.125Z" fill="white"/>
<rect opacity="0.5" x="93.2188" y="143" width="67.5" height="6.75" rx="1" fill="#55CEC7"/>
</g>
<g filter="url(#filter5_d_3354_14927)">
<path d="M195.312 175.062L188.562 170H107.562L114.312 175.062H195.312Z" fill="url(#paint12_linear_3354_14927)"/>
<path d="M188.562 156.5V167.891V170L195.312 175.062V161.562L188.562 156.5Z" fill="url(#paint13_linear_3354_14927)"/>
<path d="M107.562 170L107.563 156.5L188.563 156.5L188.562 170L107.562 170Z" fill="white"/>
<rect opacity="0.5" x="114.312" y="159.875" width="67.5" height="6.75" rx="1" fill="#55CEC7"/>
</g>
<g filter="url(#filter6_d_3354_14927)">
<path d="M147.219 173.375V188.566H69.5938L76.2897 193.588C77.3315 194.654 78.7854 195.316 80.3938 195.316H149.919C153.087 195.316 155.656 192.747 155.656 189.578V178.441L148.906 173.375H147.219Z" fill="url(#paint14_linear_3354_14927)"/>
<path d="M74.7063 190.25C70.9507 190.25 67.9063 187.206 67.9063 183.45L67.9063 173.375L148.906 173.375L148.906 183.45C148.906 187.206 145.862 190.25 142.106 190.25L74.7063 190.25Z" fill="white"/>
<path opacity="0.5" d="M74.6562 177.594C74.6562 177.128 75.034 176.75 75.5 176.75H141.312C141.778 176.75 142.156 177.128 142.156 177.594V182.656C142.156 183.122 141.778 183.5 141.312 183.5H75.5C75.034 183.5 74.6562 183.122 74.6562 182.656V177.594Z" fill="#55CEC7"/>
</g>
<g filter="url(#filter7_d_3354_14927)">
<path d="M158.876 97.1562L148.906 70.1562L175.906 78.9691L167.183 82.9065L175.134 90.1L170.268 95.2963L162.318 88.1028L158.876 97.1562Z" fill="black"/>
<path d="M166.513 83.648L173.709 90.159L170.21 93.8953L162.989 87.3613L161.903 86.3791L161.383 87.7475L158.89 94.3062L150.56 71.748L173.143 79.1192L166.772 81.995L165.38 82.6234L166.513 83.648Z" stroke="white" stroke-width="2"/>
</g>
<path d="M96.0977 239.219V252.148H94.5547V247.109H91.5859V245.82H94.5547V243.809H91.5859V242.539H94.5547V239.219H96.0977ZM81.7422 248.203C82.4355 248.203 83.1875 248.193 83.9883 248.184V241.895H82.2305V240.645H91.4492V241.895H89.6719V247.979C90.4727 247.93 91.2637 247.861 92.0156 247.773L92.0938 248.926C88.7246 249.443 84.7598 249.502 81.9375 249.512L81.7422 248.203ZM84.9062 256.211V251.074H86.4492V254.922H96.5664V256.211H84.9062ZM85.4727 248.154C86.3613 248.135 87.2793 248.105 88.1875 248.066V241.895H85.4727V248.154ZM105.238 242.09C105.248 244.355 107.123 246.367 109.711 247.148L108.93 248.359C106.898 247.715 105.268 246.318 104.486 244.521C103.715 246.445 102.074 247.949 100.004 248.652L99.2031 247.441C101.82 246.611 103.686 244.473 103.695 242.09V241.641H99.6328V240.391H109.242V241.641H105.238V242.09ZM102.074 256.348V249.473H103.598V251.582H111.801V249.473H113.324V256.348H102.074ZM103.598 255.098H111.801V252.812H103.598V255.098ZM111.801 248.613V239.219H113.324V248.613H111.801ZM129.711 239.219V246.387H132.621V247.656H129.711V256.582H128.188V239.219H129.711ZM116.176 243.281V242.012H120.648V239.434H122.172V242.012H126.508V243.281H116.176ZM117.172 248.711C117.162 246.367 118.959 244.727 121.43 244.727C123.881 244.727 125.668 246.367 125.688 248.711C125.668 251.064 123.881 252.695 121.43 252.695C118.959 252.695 117.162 251.064 117.172 248.711ZM118.637 248.711C118.627 250.293 119.809 251.406 121.43 251.387C123.031 251.406 124.203 250.293 124.223 248.711C124.203 247.139 123.031 246.006 121.43 246.016C119.809 246.006 118.627 247.139 118.637 248.711ZM147.914 239.219V256.582H146.371V239.219H147.914ZM133.773 252.07C138.471 249.844 140.873 246.514 141.215 242.363H134.574V241.113H142.777C142.758 246.104 140.434 250.527 134.613 253.32L133.773 252.07Z" fill="#747474"/>
<defs>
<filter id="filter0_i_3354_14927" x="0" y="0" width="232" height="280" filterUnits="userSpaceOnUse" color-interpolation-filters="sRGB">
<feFlood flood-opacity="0" result="BackgroundImageFix"/>
<feBlend mode="normal" in="SourceGraphic" in2="BackgroundImageFix" result="shape"/>
<feColorMatrix in="SourceAlpha" type="matrix" values="0 0 0 0 0 0 0 0 0 0 0 0 0 0 0 0 0 0 127 0" result="hardAlpha"/>
<feMorphology radius="1" operator="erode" in="SourceAlpha" result="effect1_innerShadow_3354_14927"/>
<feOffset/>
<feGaussianBlur stdDeviation="1"/>
<feComposite in2="hardAlpha" operator="arithmetic" k2="-1" k3="1"/>
<feColorMatrix type="matrix" values="0 0 0 0 0 0 0 0 0 0 0 0 0 0 0 0 0 0 0.1 0"/>
<feBlend mode="normal" in2="shape" result="effect1_innerShadow_3354_14927"/>
</filter>
<filter id="filter1_d_3354_14927" x="66.125" y="30.6875" width="99.75" height="44.0625" filterUnits="userSpaceOnUse" color-interpolation-filters="sRGB">
<feFlood flood-opacity="0" result="BackgroundImageFix"/>
<feColorMatrix in="SourceAlpha" type="matrix" values="0 0 0 0 0 0 0 0 0 0 0 0 0 0 0 0 0 0 127 0" result="hardAlpha"/>
<feOffset/>
<feGaussianBlur stdDeviation="3"/>
<feComposite in2="hardAlpha" operator="out"/>
<feColorMatrix type="matrix" values="0 0 0 0 0 0 0 0 0 0 0 0 0 0 0 0 0 0 0.15 0"/>
<feBlend mode="normal" in2="BackgroundImageFix" result="effect1_dropShadow_3354_14927"/>
<feBlend mode="normal" in="SourceGraphic" in2="effect1_dropShadow_3354_14927" result="shape"/>
</filter>
<filter id="filter2_d_3354_14927" x="93.9688" y="62.75" width="99.75" height="40.6875" filterUnits="userSpaceOnUse" color-interpolation-filters="sRGB">
<feFlood flood-opacity="0" result="BackgroundImageFix"/>
<feColorMatrix in="SourceAlpha" type="matrix" values="0 0 0 0 0 0 0 0 0 0 0 0 0 0 0 0 0 0 127 0" result="hardAlpha"/>
<feOffset/>
<feGaussianBlur stdDeviation="3"/>
<feComposite in2="hardAlpha" operator="out"/>
<feColorMatrix type="matrix" values="0 0 0 0 0 0 0 0 0 0 0 0 0 0 0 0 0 0 0.15 0"/>
<feBlend mode="normal" in2="BackgroundImageFix" result="effect1_dropShadow_3354_14927"/>
<feBlend mode="normal" in="SourceGraphic" in2="effect1_dropShadow_3354_14927" result="shape"/>
</filter>
<filter id="filter3_d_3354_14927" x="30.6875" y="89.75" width="99.75" height="57.5625" filterUnits="userSpaceOnUse" color-interpolation-filters="sRGB">
<feFlood flood-opacity="0" result="BackgroundImageFix"/>
<feColorMatrix in="SourceAlpha" type="matrix" values="0 0 0 0 0 0 0 0 0 0 0 0 0 0 0 0 0 0 127 0" result="hardAlpha"/>
<feOffset/>
<feGaussianBlur stdDeviation="3"/>
<feComposite in2="hardAlpha" operator="out"/>
<feColorMatrix type="matrix" values="0 0 0 0 0 0 0 0 0 0 0 0 0 0 0 0 0 0 0.15 0"/>
<feBlend mode="normal" in2="BackgroundImageFix" result="effect1_dropShadow_3354_14927"/>
<feBlend mode="normal" in="SourceGraphic" in2="effect1_dropShadow_3354_14927" result="shape"/>
</filter>
<filter id="filter4_d_3354_14927" x="80.4688" y="133.625" width="99.75" height="30.5625" filterUnits="userSpaceOnUse" color-interpolation-filters="sRGB">
<feFlood flood-opacity="0" result="BackgroundImageFix"/>
<feColorMatrix in="SourceAlpha" type="matrix" values="0 0 0 0 0 0 0 0 0 0 0 0 0 0 0 0 0 0 127 0" result="hardAlpha"/>
<feOffset/>
<feGaussianBlur stdDeviation="3"/>
<feComposite in2="hardAlpha" operator="out"/>
<feColorMatrix type="matrix" values="0 0 0 0 0 0 0 0 0 0 0 0 0 0 0 0 0 0 0.15 0"/>
<feBlend mode="normal" in2="BackgroundImageFix" result="effect1_dropShadow_3354_14927"/>
<feBlend mode="normal" in="SourceGraphic" in2="effect1_dropShadow_3354_14927" result="shape"/>
</filter>
<filter id="filter5_d_3354_14927" x="101.562" y="150.5" width="99.75" height="30.5625" filterUnits="userSpaceOnUse" color-interpolation-filters="sRGB">
<feFlood flood-opacity="0" result="BackgroundImageFix"/>
<feColorMatrix in="SourceAlpha" type="matrix" values="0 0 0 0 0 0 0 0 0 0 0 0 0 0 0 0 0 0 127 0" result="hardAlpha"/>
<feOffset/>
<feGaussianBlur stdDeviation="3"/>
<feComposite in2="hardAlpha" operator="out"/>
<feColorMatrix type="matrix" values="0 0 0 0 0 0 0 0 0 0 0 0 0 0 0 0 0 0 0.15 0"/>
<feBlend mode="normal" in2="BackgroundImageFix" result="effect1_dropShadow_3354_14927"/>
<feBlend mode="normal" in="SourceGraphic" in2="effect1_dropShadow_3354_14927" result="shape"/>
</filter>
<filter id="filter6_d_3354_14927" x="61.9062" y="167.375" width="99.75" height="33.9414" filterUnits="userSpaceOnUse" color-interpolation-filters="sRGB">
<feFlood flood-opacity="0" result="BackgroundImageFix"/>
<feColorMatrix in="SourceAlpha" type="matrix" values="0 0 0 0 0 0 0 0 0 0 0 0 0 0 0 0 0 0 127 0" result="hardAlpha"/>
<feOffset/>
<feGaussianBlur stdDeviation="3"/>
<feComposite in2="hardAlpha" operator="out"/>
<feColorMatrix type="matrix" values="0 0 0 0 0 0 0 0 0 0 0 0 0 0 0 0 0 0 0.15 0"/>
<feBlend mode="normal" in2="BackgroundImageFix" result="effect1_dropShadow_3354_14927"/>
<feBlend mode="normal" in="SourceGraphic" in2="effect1_dropShadow_3354_14927" result="shape"/>
</filter>
<filter id="filter7_d_3354_14927" x="144.906" y="70.1562" width="35" height="35" filterUnits="userSpaceOnUse" color-interpolation-filters="sRGB">
<feFlood flood-opacity="0" result="BackgroundImageFix"/>
<feColorMatrix in="SourceAlpha" type="matrix" values="0 0 0 0 0 0 0 0 0 0 0 0 0 0 0 0 0 0 127 0" result="hardAlpha"/>
<feOffset dy="4"/>
<feGaussianBlur stdDeviation="2"/>
<feComposite in2="hardAlpha" operator="out"/>
<feColorMatrix type="matrix" values="0 0 0 0 0 0 0 0 0 0 0 0 0 0 0 0 0 0 0.5 0"/>
<feBlend mode="normal" in2="BackgroundImageFix" result="effect1_dropShadow_3354_14927"/>
<feBlend mode="normal" in="SourceGraphic" in2="effect1_dropShadow_3354_14927" result="shape"/>
</filter>
<linearGradient id="paint0_linear_3354_14927" x1="216" y1="216" x2="-24.1184" y2="135.153" gradientUnits="userSpaceOnUse">
<stop stop-color="#EAF8FF"/>
<stop offset="1" stop-color="#EAF8FF" stop-opacity="0"/>
</linearGradient>
<linearGradient id="paint1_linear_3354_14927" x1="153.969" y1="69.5938" x2="168.397" y2="74.6252" gradientUnits="userSpaceOnUse">
<stop stop-color="#93B7FF"/>
<stop offset="0.906502" stop-color="#CAF9FF"/>
</linearGradient>
<linearGradient id="paint2_linear_3354_14927" x1="153.125" y1="36.6875" x2="135.819" y2="83.3076" gradientUnits="userSpaceOnUse">
<stop stop-color="#2D71F7"/>
<stop offset="0.906502" stop-color="#34D8EE"/>
</linearGradient>
<linearGradient id="paint3_linear_3354_14927" x1="86.8906" y1="68.75" x2="176.75" y2="68.75" gradientUnits="userSpaceOnUse">
<stop stop-color="#A9C6FF"/>
<stop offset="0.713542" stop-color="#CBE6FF"/>
</linearGradient>
<linearGradient id="paint4_linear_3354_14927" x1="114.734" y1="97.4375" x2="204.594" y2="97.4375" gradientUnits="userSpaceOnUse">
<stop stop-color="#A9C6FF"/>
<stop offset="0.713542" stop-color="#CBE6FF"/>
</linearGradient>
<linearGradient id="paint5_linear_3354_14927" x1="181.813" y1="74.6562" x2="196.241" y2="79.6877" gradientUnits="userSpaceOnUse">
<stop stop-color="#93B7FF"/>
<stop offset="0.906502" stop-color="#CAF9FF"/>
</linearGradient>
<linearGradient id="paint6_linear_3354_14927" x1="105.875" y1="82.25" x2="112.089" y2="101.698" gradientUnits="userSpaceOnUse">
<stop stop-color="#4F32FF"/>
<stop offset="0.713542" stop-color="#51ABFF"/>
</linearGradient>
<linearGradient id="paint7_linear_3354_14927" x1="103.766" y1="141.312" x2="35" y2="141.312" gradientUnits="userSpaceOnUse">
<stop stop-color="#8591FF"/>
<stop offset="0.536458" stop-color="#BDDFFF"/>
</linearGradient>
<linearGradient id="paint8_linear_3354_14927" x1="124.437" y1="64.5312" x2="154.452" y2="73.9981" gradientUnits="userSpaceOnUse">
<stop stop-color="#96BAFF"/>
<stop offset="0.713542" stop-color="#98E6FF"/>
</linearGradient>
<linearGradient id="paint9_linear_3354_14927" x1="26.1406" y1="91.9531" x2="56.0881" y2="162.655" gradientUnits="userSpaceOnUse">
<stop stop-color="#3211FF"/>
<stop offset="0.713542" stop-color="#51ABFF"/>
</linearGradient>
<linearGradient id="paint10_linear_3354_14927" x1="101.234" y1="158.188" x2="191.094" y2="158.188" gradientUnits="userSpaceOnUse">
<stop stop-color="#A9C6FF"/>
<stop offset="0.713542" stop-color="#CBE6FF"/>
</linearGradient>
<linearGradient id="paint11_linear_3354_14927" x1="168.313" y1="135.406" x2="182.741" y2="140.438" gradientUnits="userSpaceOnUse">
<stop stop-color="#93B7FF"/>
<stop offset="0.906502" stop-color="#CAF9FF"/>
</linearGradient>
<linearGradient id="paint12_linear_3354_14927" x1="122.328" y1="175.063" x2="212.187" y2="175.063" gradientUnits="userSpaceOnUse">
<stop stop-color="#A9C6FF"/>
<stop offset="0.713542" stop-color="#CBE6FF"/>
</linearGradient>
<linearGradient id="paint13_linear_3354_14927" x1="189.406" y1="152.281" x2="203.835" y2="157.313" gradientUnits="userSpaceOnUse">
<stop stop-color="#93B7FF"/>
<stop offset="0.906502" stop-color="#CAF9FF"/>
</linearGradient>
<linearGradient id="paint14_linear_3354_14927" x1="103.344" y1="161.141" x2="160.297" y2="180.547" gradientUnits="userSpaceOnUse">
<stop stop-color="#97BAFF"/>
<stop offset="0.906502" stop-color="#DDFBFF"/>
</linearGradient>
</defs>
</svg>
