<svg width="232" height="280" viewBox="0 0 232 280" fill="none" xmlns="http://www.w3.org/2000/svg">
<g filter="url(#filter0_i_3354_14964)">
<rect width="232" height="280" rx="20" fill="white"/>
</g>
<rect x="16" y="16" width="200" height="200" rx="12" fill="url(#paint0_linear_3354_14964)" fill-opacity="0.5"/>
<g filter="url(#filter1_d_3354_14964)">
<path d="M99.9678 83.0938L99.9678 72.9688L180.968 72.9688L180.968 83.0938L99.9678 83.0938Z" fill="white"/>
<path d="M99.9678 106.719L99.9678 83.0937L180.968 83.0937L180.968 106.719L99.9678 106.719Z" fill="white"/>
<path opacity="0.5" d="M106.718 90.6875C106.718 90.2215 107.096 89.8438 107.562 89.8438H173.374C173.84 89.8438 174.218 90.2215 174.218 90.6875V99.125C174.218 99.591 173.84 99.9688 173.374 99.9688H107.562C107.096 99.9688 106.718 99.591 106.718 99.125V90.6875Z" fill="url(#paint1_linear_3354_14964)"/>
<rect x="99.9678" y="106.719" width="81" height="40.5" fill="white"/>
<path d="M106.718 114.312C106.718 113.847 107.096 113.469 107.562 113.469H173.374C173.84 113.469 174.218 113.847 174.218 114.312V139.625C174.218 140.091 173.84 140.469 173.374 140.469H107.562C107.096 140.469 106.718 140.091 106.718 139.625V114.312Z" fill="url(#paint2_linear_3354_14964)" fill-opacity="0.5"/>
<path d="M99.9678 160.719L99.9678 147.219L180.968 147.219L180.968 160.719L99.9678 160.719Z" fill="white"/>
<path opacity="0.5" d="M106.718 151.438C106.718 150.972 107.096 150.594 107.562 150.594H173.374C173.84 150.594 174.218 150.972 174.218 151.438V156.5C174.218 156.966 173.84 157.344 173.374 157.344H107.562C107.096 157.344 106.718 156.966 106.718 156.5V151.438Z" fill="#55CEC7"/>
<path d="M99.9678 174.219L99.9678 160.719L180.968 160.719L180.968 174.219L99.9678 174.219Z" fill="white"/>
<path opacity="0.5" d="M106.718 164.938C106.718 164.472 107.096 164.094 107.562 164.094H173.374C173.84 164.094 174.218 164.472 174.218 164.938V170C174.218 170.466 173.84 170.844 173.374 170.844H107.562C107.096 170.844 106.718 170.466 106.718 170V164.938Z" fill="#55CEC7"/>
<path d="M106.768 191.094C103.012 191.094 99.9678 188.049 99.9678 184.294L99.9678 174.219L180.968 174.219L180.968 184.294C180.968 188.049 177.923 191.094 174.168 191.094L106.768 191.094Z" fill="white"/>
<path opacity="0.5" d="M106.718 178.438C106.718 177.972 107.096 177.594 107.562 177.594H173.374C173.84 177.594 174.218 177.972 174.218 178.438V183.5C174.218 183.966 173.84 184.344 173.374 184.344H107.562C107.096 184.344 106.718 183.966 106.718 183.5V178.438Z" fill="#55CEC7"/>
</g>
<path d="M182.655 72.9688L175.905 68.0469L174.218 65.5625V42.5938L179.612 46.5269C181.423 47.4649 182.655 49.3191 182.655 51.4531V72.9688Z" fill="url(#paint3_linear_3354_14964)"/>
<path d="M182.655 72.9688L175.905 67.9062H69.5928L75.499 72.9688H182.655Z" fill="url(#paint4_linear_3354_14964)"/>
<g filter="url(#filter2_d_3354_14964)">
<path d="M94.9053 82.25L94.9053 72.125L175.905 72.125L175.905 82.25L94.9053 82.25Z" fill="white"/>
<path d="M94.9053 105.875L94.9053 82.25L175.905 82.25L175.905 105.875L94.9053 105.875Z" fill="white"/>
<path opacity="0.5" d="M101.655 89.8437C101.655 89.3778 102.033 89 102.499 89H168.312C168.778 89 169.155 89.3778 169.155 89.8438V98.2812C169.155 98.7472 168.778 99.125 168.312 99.125H102.499C102.033 99.125 101.655 98.7472 101.655 98.2812V89.8437Z" fill="url(#paint5_linear_3354_14964)"/>
<rect x="94.9053" y="105.875" width="81" height="40.5" fill="white"/>
<path d="M101.655 113.469C101.655 113.003 102.033 112.625 102.499 112.625H168.312C168.778 112.625 169.155 113.003 169.155 113.469V138.781C169.155 139.247 168.778 139.625 168.312 139.625H102.499C102.033 139.625 101.655 139.247 101.655 138.781V113.469Z" fill="url(#paint6_linear_3354_14964)" fill-opacity="0.5"/>
<path d="M94.9053 159.875L94.9053 146.375L175.905 146.375L175.905 159.875L94.9053 159.875Z" fill="white"/>
<path opacity="0.5" d="M101.655 150.594C101.655 150.128 102.033 149.75 102.499 149.75H168.312C168.778 149.75 169.155 150.128 169.155 150.594V155.656C169.155 156.122 168.778 156.5 168.312 156.5H102.499C102.033 156.5 101.655 156.122 101.655 155.656V150.594Z" fill="#55CEC7"/>
<path d="M94.9053 173.375L94.9053 159.875L175.905 159.875L175.905 173.375L94.9053 173.375Z" fill="white"/>
<path opacity="0.5" d="M101.655 164.094C101.655 163.628 102.033 163.25 102.499 163.25H168.312C168.778 163.25 169.155 163.628 169.155 164.094V169.156C169.155 169.622 168.778 170 168.312 170H102.499C102.033 170 101.655 169.622 101.655 169.156V164.094Z" fill="#55CEC7"/>
<path d="M101.705 190.25C97.9497 190.25 94.9053 187.206 94.9053 183.45L94.9053 173.375L175.905 173.375L175.905 183.45C175.905 187.206 172.861 190.25 169.105 190.25L101.705 190.25Z" fill="white"/>
<path opacity="0.5" d="M101.655 177.594C101.655 177.128 102.033 176.75 102.499 176.75H168.312C168.778 176.75 169.155 177.128 169.155 177.594V182.656C169.155 183.122 168.778 183.5 168.312 183.5H102.499C102.033 183.5 101.655 183.122 101.655 182.656V177.594Z" fill="#55CEC7"/>
</g>
<g filter="url(#filter3_d_3354_14964)">
<path d="M89.8428 81.4062L89.8428 71.2812L170.843 71.2813L170.843 81.4063L89.8428 81.4062Z" fill="white"/>
<path d="M89.8428 105.031L89.8428 81.4062L170.843 81.4062L170.843 105.031L89.8428 105.031Z" fill="white"/>
<path opacity="0.5" d="M96.5928 89C96.5928 88.534 96.9705 88.1562 97.4365 88.1562H163.249C163.715 88.1562 164.093 88.534 164.093 89V97.4375C164.093 97.9035 163.715 98.2812 163.249 98.2812H97.4365C96.9705 98.2812 96.5928 97.9035 96.5928 97.4375V89Z" fill="url(#paint7_linear_3354_14964)"/>
<rect x="89.8428" y="105.031" width="81" height="40.5" fill="white"/>
<path d="M96.5928 112.625C96.5928 112.159 96.9705 111.781 97.4365 111.781H163.249C163.715 111.781 164.093 112.159 164.093 112.625V137.938C164.093 138.403 163.715 138.781 163.249 138.781H97.4365C96.9705 138.781 96.5928 138.403 96.5928 137.938V112.625Z" fill="url(#paint8_linear_3354_14964)" fill-opacity="0.5"/>
<path d="M89.8428 159.031L89.8428 145.531L170.843 145.531L170.843 159.031L89.8428 159.031Z" fill="white"/>
<path opacity="0.5" d="M96.5928 149.75C96.5928 149.284 96.9705 148.906 97.4365 148.906H163.249C163.715 148.906 164.093 149.284 164.093 149.75V154.812C164.093 155.278 163.715 155.656 163.249 155.656H97.4365C96.9705 155.656 96.5928 155.278 96.5928 154.812V149.75Z" fill="#55CEC7"/>
<path d="M89.8428 172.531L89.8428 159.031L170.843 159.031L170.843 172.531L89.8428 172.531Z" fill="white"/>
<path opacity="0.5" d="M96.5928 163.25C96.5928 162.784 96.9705 162.406 97.4365 162.406H163.249C163.715 162.406 164.093 162.784 164.093 163.25V168.312C164.093 168.778 163.715 169.156 163.249 169.156H97.4365C96.9705 169.156 96.5928 168.778 96.5928 168.312V163.25Z" fill="#55CEC7"/>
<path d="M96.6428 189.406C92.8872 189.406 89.8428 186.362 89.8428 182.606L89.8428 172.531L170.843 172.531L170.843 182.606C170.843 186.362 167.798 189.406 164.043 189.406L96.6428 189.406Z" fill="white"/>
<path opacity="0.5" d="M96.5928 176.75C96.5928 176.284 96.9705 175.906 97.4365 175.906H163.249C163.715 175.906 164.093 176.284 164.093 176.75V181.812C164.093 182.278 163.715 182.656 163.249 182.656H97.4365C96.9705 182.656 96.5928 182.278 96.5928 181.812V176.75Z" fill="#55CEC7"/>
</g>
<g filter="url(#filter4_d_3354_14964)">
<path d="M84.7803 80.5625L84.7803 70.4375L165.78 70.4375L165.78 80.5625L84.7803 80.5625Z" fill="white"/>
<path d="M84.7803 104.188L84.7803 80.5625L165.78 80.5625L165.78 104.188L84.7803 104.188Z" fill="white"/>
<path opacity="0.5" d="M91.5303 88.1562C91.5303 87.6903 91.908 87.3125 92.374 87.3125H158.187C158.653 87.3125 159.03 87.6903 159.03 88.1562V96.5938C159.03 97.0597 158.653 97.4375 158.187 97.4375H92.374C91.908 97.4375 91.5303 97.0597 91.5303 96.5938V88.1562Z" fill="url(#paint9_linear_3354_14964)"/>
<rect x="84.7803" y="104.188" width="81" height="40.5" fill="white"/>
<path d="M91.5303 111.781C91.5303 111.315 91.908 110.938 92.374 110.938H158.187C158.653 110.938 159.03 111.315 159.03 111.781V137.094C159.03 137.56 158.653 137.938 158.187 137.938H92.374C91.908 137.938 91.5303 137.56 91.5303 137.094V111.781Z" fill="url(#paint10_linear_3354_14964)" fill-opacity="0.5"/>
<path d="M84.7803 158.188L84.7803 144.687L165.78 144.687L165.78 158.188L84.7803 158.188Z" fill="white"/>
<path opacity="0.5" d="M91.5303 148.906C91.5303 148.44 91.908 148.062 92.374 148.062H158.187C158.653 148.062 159.03 148.44 159.03 148.906V153.969C159.03 154.435 158.653 154.812 158.187 154.812H92.374C91.908 154.812 91.5303 154.435 91.5303 153.969V148.906Z" fill="#55CEC7"/>
<path d="M84.7803 171.688L84.7803 158.187L165.78 158.187L165.78 171.688L84.7803 171.688Z" fill="white"/>
<path opacity="0.5" d="M91.5303 162.406C91.5303 161.94 91.908 161.562 92.374 161.562H158.187C158.653 161.562 159.03 161.94 159.03 162.406V167.469C159.03 167.935 158.653 168.312 158.187 168.312H92.374C91.908 168.312 91.5303 167.935 91.5303 167.469V162.406Z" fill="#55CEC7"/>
<path d="M91.5803 188.563C87.8247 188.563 84.7803 185.518 84.7803 181.762L84.7803 171.687L165.78 171.687L165.78 181.763C165.78 185.518 162.736 188.563 158.98 188.563L91.5803 188.563Z" fill="white"/>
<path opacity="0.5" d="M91.5303 175.906C91.5303 175.44 91.908 175.062 92.374 175.062H158.187C158.653 175.062 159.03 175.44 159.03 175.906V180.969C159.03 181.435 158.653 181.812 158.187 181.812H92.374C91.908 181.812 91.5303 181.435 91.5303 180.969V175.906Z" fill="#55CEC7"/>
</g>
<g filter="url(#filter5_d_3354_14964)">
<path d="M79.7178 79.7188L79.7178 69.5938L160.718 69.5938L160.718 79.7188L79.7178 79.7188Z" fill="white"/>
<path d="M79.7178 103.344L79.7178 79.7187L160.718 79.7187L160.718 103.344L79.7178 103.344Z" fill="white"/>
<path opacity="0.5" d="M86.4678 87.3125C86.4678 86.8465 86.8455 86.4688 87.3115 86.4688H153.124C153.59 86.4688 153.968 86.8465 153.968 87.3125V95.75C153.968 96.216 153.59 96.5938 153.124 96.5938H87.3115C86.8455 96.5938 86.4678 96.216 86.4678 95.75V87.3125Z" fill="url(#paint11_linear_3354_14964)"/>
<rect x="79.7178" y="103.344" width="81" height="40.5" fill="white"/>
<path d="M86.4678 110.938C86.4678 110.472 86.8455 110.094 87.3115 110.094H153.124C153.59 110.094 153.968 110.472 153.968 110.938V136.25C153.968 136.716 153.59 137.094 153.124 137.094H87.3115C86.8455 137.094 86.4678 136.716 86.4678 136.25V110.938Z" fill="url(#paint12_linear_3354_14964)" fill-opacity="0.5"/>
<path d="M79.7178 157.344L79.7178 143.844L160.718 143.844L160.718 157.344L79.7178 157.344Z" fill="white"/>
<path opacity="0.5" d="M86.4678 148.062C86.4678 147.597 86.8455 147.219 87.3115 147.219H153.124C153.59 147.219 153.968 147.597 153.968 148.062V153.125C153.968 153.591 153.59 153.969 153.124 153.969H87.3115C86.8455 153.969 86.4678 153.591 86.4678 153.125V148.062Z" fill="#55CEC7"/>
<path d="M79.7178 170.844L79.7178 157.344L160.718 157.344L160.718 170.844L79.7178 170.844Z" fill="white"/>
<path opacity="0.5" d="M86.4678 161.562C86.4678 161.097 86.8455 160.719 87.3115 160.719H153.124C153.59 160.719 153.968 161.097 153.968 161.562V166.625C153.968 167.091 153.59 167.469 153.124 167.469H87.3115C86.8455 167.469 86.4678 167.091 86.4678 166.625V161.562Z" fill="#55CEC7"/>
<path d="M86.5178 187.719C82.7622 187.719 79.7178 184.674 79.7178 180.919L79.7178 170.844L160.718 170.844L160.718 180.919C160.718 184.674 157.673 187.719 153.918 187.719L86.5178 187.719Z" fill="white"/>
<path opacity="0.5" d="M86.4678 175.062C86.4678 174.597 86.8455 174.219 87.3115 174.219H153.124C153.59 174.219 153.968 174.597 153.968 175.062V180.125C153.968 180.591 153.59 180.969 153.124 180.969H87.3115C86.8455 180.969 86.4678 180.591 86.4678 180.125V175.062Z" fill="#55CEC7"/>
</g>
<g filter="url(#filter6_d_3354_14964)">
<path d="M74.6553 78.875L74.6553 68.75L155.655 68.75L155.655 78.875L74.6553 78.875Z" fill="white"/>
<path d="M74.6553 102.5L74.6553 78.875L155.655 78.875L155.655 102.5L74.6553 102.5Z" fill="white"/>
<path opacity="0.5" d="M81.4053 86.4687C81.4053 86.0028 81.783 85.625 82.249 85.625H148.062C148.528 85.625 148.905 86.0028 148.905 86.4688V94.9062C148.905 95.3722 148.528 95.75 148.062 95.75H82.249C81.783 95.75 81.4053 95.3722 81.4053 94.9062V86.4687Z" fill="url(#paint13_linear_3354_14964)"/>
<rect x="74.6553" y="102.5" width="81" height="40.5" fill="white"/>
<path d="M81.4053 110.094C81.4053 109.628 81.783 109.25 82.249 109.25H148.062C148.528 109.25 148.905 109.628 148.905 110.094V135.406C148.905 135.872 148.528 136.25 148.062 136.25H82.249C81.783 136.25 81.4053 135.872 81.4053 135.406V110.094Z" fill="url(#paint14_linear_3354_14964)" fill-opacity="0.5"/>
<path d="M74.6553 156.5L74.6553 143L155.655 143L155.655 156.5L74.6553 156.5Z" fill="white"/>
<path opacity="0.5" d="M81.4053 147.219C81.4053 146.753 81.783 146.375 82.249 146.375H148.062C148.528 146.375 148.905 146.753 148.905 147.219V152.281C148.905 152.747 148.528 153.125 148.062 153.125H82.249C81.783 153.125 81.4053 152.747 81.4053 152.281V147.219Z" fill="#55CEC7"/>
<path d="M74.6553 170L74.6553 156.5L155.655 156.5L155.655 170L74.6553 170Z" fill="white"/>
<path opacity="0.5" d="M81.4053 160.719C81.4053 160.253 81.783 159.875 82.249 159.875H148.062C148.528 159.875 148.905 160.253 148.905 160.719V165.781C148.905 166.247 148.528 166.625 148.062 166.625H82.249C81.783 166.625 81.4053 166.247 81.4053 165.781V160.719Z" fill="#55CEC7"/>
<path d="M81.4553 186.875C77.6997 186.875 74.6553 183.831 74.6553 180.075L74.6553 170L155.655 170L155.655 180.075C155.655 183.831 152.611 186.875 148.855 186.875L81.4553 186.875Z" fill="white"/>
<path opacity="0.5" d="M81.4053 174.219C81.4053 173.753 81.783 173.375 82.249 173.375H148.062C148.528 173.375 148.905 173.753 148.905 174.219V179.281C148.905 179.747 148.528 180.125 148.062 180.125H82.249C81.783 180.125 81.4053 179.747 81.4053 179.281V174.219Z" fill="#55CEC7"/>
</g>
<g filter="url(#filter7_d_3354_14964)">
<path d="M69.5928 78.0312L69.5928 67.9062L150.593 67.9063L150.593 78.0313L69.5928 78.0312Z" fill="white"/>
<path d="M69.5928 101.656L69.5928 78.0312L150.593 78.0312L150.593 101.656L69.5928 101.656Z" fill="white"/>
<path opacity="0.5" d="M76.3428 85.625C76.3428 85.159 76.7205 84.7812 77.1865 84.7812H142.999C143.465 84.7812 143.843 85.159 143.843 85.625V94.0625C143.843 94.5285 143.465 94.9062 142.999 94.9062H77.1865C76.7205 94.9062 76.3428 94.5285 76.3428 94.0625V85.625Z" fill="url(#paint15_linear_3354_14964)"/>
<rect x="69.5928" y="101.656" width="81" height="40.5" fill="white"/>
<path d="M76.3428 109.25C76.3428 108.784 76.7205 108.406 77.1865 108.406H142.999C143.465 108.406 143.843 108.784 143.843 109.25V134.562C143.843 135.028 143.465 135.406 142.999 135.406H77.1865C76.7205 135.406 76.3428 135.028 76.3428 134.562V109.25Z" fill="url(#paint16_linear_3354_14964)"/>
<path d="M69.5928 155.656L69.5928 142.156L150.593 142.156L150.593 155.656L69.5928 155.656Z" fill="white"/>
<path opacity="0.5" d="M76.3428 146.375C76.3428 145.909 76.7205 145.531 77.1865 145.531H142.999C143.465 145.531 143.843 145.909 143.843 146.375V151.438C143.843 151.903 143.465 152.281 142.999 152.281H77.1865C76.7205 152.281 76.3428 151.903 76.3428 151.438V146.375Z" fill="#55CEC7"/>
<path d="M69.5928 169.156L69.5928 155.656L150.593 155.656L150.593 169.156L69.5928 169.156Z" fill="white"/>
<path opacity="0.5" d="M76.3428 159.875C76.3428 159.409 76.7205 159.031 77.1865 159.031H142.999C143.465 159.031 143.843 159.409 143.843 159.875V164.938C143.843 165.403 143.465 165.781 142.999 165.781H77.1865C76.7205 165.781 76.3428 165.403 76.3428 164.938V159.875Z" fill="#55CEC7"/>
<path d="M76.3928 186.031C72.6372 186.031 69.5928 182.987 69.5928 179.231L69.5928 169.156L150.593 169.156L150.593 179.231C150.593 182.987 147.548 186.031 143.793 186.031L76.3928 186.031Z" fill="white"/>
<path opacity="0.5" d="M76.3428 173.375C76.3428 172.909 76.7205 172.531 77.1865 172.531H142.999C143.465 172.531 143.843 172.909 143.843 173.375V178.438C143.843 178.903 143.465 179.281 142.999 179.281H77.1865C76.7205 179.281 76.3428 178.903 76.3428 178.438V173.375Z" fill="#55CEC7"/>
</g>
<path d="M69.5928 67.9062L69.5928 47.7062C69.5928 43.9507 72.6372 40.9063 76.3928 40.9063L169.105 40.9063C172.861 40.9063 175.905 43.9507 175.905 47.7063L175.905 67.9063L69.5928 67.9062Z" fill="white"/>
<path opacity="0.5" d="M69.5928 67.9062L69.5928 47.7062C69.5928 43.9507 72.6372 40.9063 76.3928 40.9063L169.105 40.9063C172.861 40.9063 175.905 43.9507 175.905 47.7063L175.905 67.9063L69.5928 67.9062Z" fill="url(#paint17_linear_3354_14964)"/>
<g filter="url(#filter8_d_3354_14964)">
<rect width="22.4676" height="5.99136" rx="2.99568" transform="matrix(-0.697062 0.717011 -0.697062 -0.717011 60.0134 65.6562)" fill="black" stroke="white" stroke-width="2"/>
<path d="M64.242 73.0145L55.5758 70.2225L48.7893 77.2033L51.5036 86.1175C51.6884 86.7245 51.7808 87.028 52.0043 87.2192C52.2278 87.4104 52.5348 87.4485 53.1486 87.5248H53.1487L67.3218 89.2855L65.6101 74.7067C65.536 74.0752 65.4989 73.7595 65.313 73.5296C65.1271 73.2997 64.8321 73.2046 64.242 73.0145Z" fill="black" stroke="white" stroke-width="2"/>
<circle cx="4.49352" cy="4.49352" r="3.49352" transform="matrix(-0.697062 0.717011 -0.697062 -0.717011 64.7107 80.1543)" fill="black" stroke="white" stroke-width="2"/>
<path d="M67.322 89.2852L60.5355 82.3044" stroke="white" stroke-width="2"/>
</g>
<path d="M91.7812 241.055V242.344H89.7695V250.752C90.6484 250.693 91.5078 250.625 92.3281 250.527L92.4258 251.66C88.8711 252.207 84.7695 252.295 81.7227 252.285L81.5664 250.977C82.2988 250.977 83.0801 250.967 83.9102 250.957V242.344H82.1133V241.055H91.7812ZM85.4141 250.928C86.3516 250.908 87.3184 250.879 88.2852 250.84V242.344H85.4141V250.928ZM91.1758 247.051V245.781H94.5742V239.219H96.0977V256.582H94.5742V247.051H91.1758ZM102.621 239.531V241.211H111.215V239.531H112.738V245.254H101.098V239.531H102.621ZM98.9883 247.988V246.758H114.809V247.988H98.9883ZM100.902 250.762V249.59H112.777V253.438H102.465V255.176H113.305V256.387H100.941V252.305H111.273V250.762H100.902ZM102.621 244.082H111.215V242.383H102.621V244.082ZM130.609 239.219V256.621H129.086V239.219H130.609ZM117.25 242.109V240.84H125.336V247.012H118.852V251.113C121.732 251.123 124.301 250.986 127.406 250.488L127.562 251.777C124.369 252.275 121.732 252.402 118.734 252.402H117.289V245.762H123.793V242.109H117.25ZM139.73 243.887C139.721 247.061 141.879 250.244 144.438 251.406L143.5 252.617C141.518 251.66 139.809 249.6 138.979 247.129C138.178 249.746 136.469 251.943 134.438 252.969L133.461 251.68C136.049 250.498 138.188 247.178 138.207 243.887V240.723H139.73V243.887ZM146.332 256.621V239.219H147.875V256.621H146.332Z" fill="#747474"/>
<defs>
<filter id="filter0_i_3354_14964" x="0" y="0" width="232" height="280" filterUnits="userSpaceOnUse" color-interpolation-filters="sRGB">
<feFlood flood-opacity="0" result="BackgroundImageFix"/>
<feBlend mode="normal" in="SourceGraphic" in2="BackgroundImageFix" result="shape"/>
<feColorMatrix in="SourceAlpha" type="matrix" values="0 0 0 0 0 0 0 0 0 0 0 0 0 0 0 0 0 0 127 0" result="hardAlpha"/>
<feMorphology radius="1" operator="erode" in="SourceAlpha" result="effect1_innerShadow_3354_14964"/>
<feOffset/>
<feGaussianBlur stdDeviation="1"/>
<feComposite in2="hardAlpha" operator="arithmetic" k2="-1" k3="1"/>
<feColorMatrix type="matrix" values="0 0 0 0 0 0 0 0 0 0 0 0 0 0 0 0 0 0 0.1 0"/>
<feBlend mode="normal" in2="shape" result="effect1_innerShadow_3354_14964"/>
</filter>
<filter id="filter1_d_3354_14964" x="93.9678" y="66.9688" width="93" height="130.125" filterUnits="userSpaceOnUse" color-interpolation-filters="sRGB">
<feFlood flood-opacity="0" result="BackgroundImageFix"/>
<feColorMatrix in="SourceAlpha" type="matrix" values="0 0 0 0 0 0 0 0 0 0 0 0 0 0 0 0 0 0 127 0" result="hardAlpha"/>
<feOffset/>
<feGaussianBlur stdDeviation="3"/>
<feComposite in2="hardAlpha" operator="out"/>
<feColorMatrix type="matrix" values="0 0 0 0 0 0 0 0 0 0 0 0 0 0 0 0 0 0 0.15 0"/>
<feBlend mode="normal" in2="BackgroundImageFix" result="effect1_dropShadow_3354_14964"/>
<feBlend mode="normal" in="SourceGraphic" in2="effect1_dropShadow_3354_14964" result="shape"/>
</filter>
<filter id="filter2_d_3354_14964" x="88.9053" y="66.125" width="93" height="130.125" filterUnits="userSpaceOnUse" color-interpolation-filters="sRGB">
<feFlood flood-opacity="0" result="BackgroundImageFix"/>
<feColorMatrix in="SourceAlpha" type="matrix" values="0 0 0 0 0 0 0 0 0 0 0 0 0 0 0 0 0 0 127 0" result="hardAlpha"/>
<feOffset/>
<feGaussianBlur stdDeviation="3"/>
<feComposite in2="hardAlpha" operator="out"/>
<feColorMatrix type="matrix" values="0 0 0 0 0 0 0 0 0 0 0 0 0 0 0 0 0 0 0.15 0"/>
<feBlend mode="normal" in2="BackgroundImageFix" result="effect1_dropShadow_3354_14964"/>
<feBlend mode="normal" in="SourceGraphic" in2="effect1_dropShadow_3354_14964" result="shape"/>
</filter>
<filter id="filter3_d_3354_14964" x="83.8428" y="65.2812" width="93" height="130.125" filterUnits="userSpaceOnUse" color-interpolation-filters="sRGB">
<feFlood flood-opacity="0" result="BackgroundImageFix"/>
<feColorMatrix in="SourceAlpha" type="matrix" values="0 0 0 0 0 0 0 0 0 0 0 0 0 0 0 0 0 0 127 0" result="hardAlpha"/>
<feOffset/>
<feGaussianBlur stdDeviation="3"/>
<feComposite in2="hardAlpha" operator="out"/>
<feColorMatrix type="matrix" values="0 0 0 0 0 0 0 0 0 0 0 0 0 0 0 0 0 0 0.15 0"/>
<feBlend mode="normal" in2="BackgroundImageFix" result="effect1_dropShadow_3354_14964"/>
<feBlend mode="normal" in="SourceGraphic" in2="effect1_dropShadow_3354_14964" result="shape"/>
</filter>
<filter id="filter4_d_3354_14964" x="78.7803" y="64.4375" width="93" height="130.125" filterUnits="userSpaceOnUse" color-interpolation-filters="sRGB">
<feFlood flood-opacity="0" result="BackgroundImageFix"/>
<feColorMatrix in="SourceAlpha" type="matrix" values="0 0 0 0 0 0 0 0 0 0 0 0 0 0 0 0 0 0 127 0" result="hardAlpha"/>
<feOffset/>
<feGaussianBlur stdDeviation="3"/>
<feComposite in2="hardAlpha" operator="out"/>
<feColorMatrix type="matrix" values="0 0 0 0 0 0 0 0 0 0 0 0 0 0 0 0 0 0 0.15 0"/>
<feBlend mode="normal" in2="BackgroundImageFix" result="effect1_dropShadow_3354_14964"/>
<feBlend mode="normal" in="SourceGraphic" in2="effect1_dropShadow_3354_14964" result="shape"/>
</filter>
<filter id="filter5_d_3354_14964" x="73.7178" y="63.5938" width="93" height="130.125" filterUnits="userSpaceOnUse" color-interpolation-filters="sRGB">
<feFlood flood-opacity="0" result="BackgroundImageFix"/>
<feColorMatrix in="SourceAlpha" type="matrix" values="0 0 0 0 0 0 0 0 0 0 0 0 0 0 0 0 0 0 127 0" result="hardAlpha"/>
<feOffset/>
<feGaussianBlur stdDeviation="3"/>
<feComposite in2="hardAlpha" operator="out"/>
<feColorMatrix type="matrix" values="0 0 0 0 0 0 0 0 0 0 0 0 0 0 0 0 0 0 0.15 0"/>
<feBlend mode="normal" in2="BackgroundImageFix" result="effect1_dropShadow_3354_14964"/>
<feBlend mode="normal" in="SourceGraphic" in2="effect1_dropShadow_3354_14964" result="shape"/>
</filter>
<filter id="filter6_d_3354_14964" x="68.6553" y="62.75" width="93" height="130.125" filterUnits="userSpaceOnUse" color-interpolation-filters="sRGB">
<feFlood flood-opacity="0" result="BackgroundImageFix"/>
<feColorMatrix in="SourceAlpha" type="matrix" values="0 0 0 0 0 0 0 0 0 0 0 0 0 0 0 0 0 0 127 0" result="hardAlpha"/>
<feOffset/>
<feGaussianBlur stdDeviation="3"/>
<feComposite in2="hardAlpha" operator="out"/>
<feColorMatrix type="matrix" values="0 0 0 0 0 0 0 0 0 0 0 0 0 0 0 0 0 0 0.15 0"/>
<feBlend mode="normal" in2="BackgroundImageFix" result="effect1_dropShadow_3354_14964"/>
<feBlend mode="normal" in="SourceGraphic" in2="effect1_dropShadow_3354_14964" result="shape"/>
</filter>
<filter id="filter7_d_3354_14964" x="63.5928" y="61.9062" width="93" height="130.125" filterUnits="userSpaceOnUse" color-interpolation-filters="sRGB">
<feFlood flood-opacity="0" result="BackgroundImageFix"/>
<feColorMatrix in="SourceAlpha" type="matrix" values="0 0 0 0 0 0 0 0 0 0 0 0 0 0 0 0 0 0 127 0" result="hardAlpha"/>
<feOffset/>
<feGaussianBlur stdDeviation="3"/>
<feComposite in2="hardAlpha" operator="out"/>
<feColorMatrix type="matrix" values="0 0 0 0 0 0 0 0 0 0 0 0 0 0 0 0 0 0 0.15 0"/>
<feBlend mode="normal" in2="BackgroundImageFix" result="effect1_dropShadow_3354_14964"/>
<feBlend mode="normal" in="SourceGraphic" in2="effect1_dropShadow_3354_14964" result="shape"/>
</filter>
<filter id="filter8_d_3354_14964" x="36.4131" y="61.6055" width="36.0381" height="36.8418" filterUnits="userSpaceOnUse" color-interpolation-filters="sRGB">
<feFlood flood-opacity="0" result="BackgroundImageFix"/>
<feColorMatrix in="SourceAlpha" type="matrix" values="0 0 0 0 0 0 0 0 0 0 0 0 0 0 0 0 0 0 127 0" result="hardAlpha"/>
<feOffset dy="4"/>
<feGaussianBlur stdDeviation="2"/>
<feComposite in2="hardAlpha" operator="out"/>
<feColorMatrix type="matrix" values="0 0 0 0 0 0 0 0 0 0 0 0 0 0 0 0 0 0 0.5 0"/>
<feBlend mode="normal" in2="BackgroundImageFix" result="effect1_dropShadow_3354_14964"/>
<feBlend mode="normal" in="SourceGraphic" in2="effect1_dropShadow_3354_14964" result="shape"/>
</filter>
<linearGradient id="paint0_linear_3354_14964" x1="216" y1="216" x2="-24.1184" y2="135.153" gradientUnits="userSpaceOnUse">
<stop stop-color="#EAF8FF"/>
<stop offset="1" stop-color="#EAF8FF" stop-opacity="0"/>
</linearGradient>
<linearGradient id="paint1_linear_3354_14964" x1="106.718" y1="96.5938" x2="112.971" y2="116.164" gradientUnits="userSpaceOnUse">
<stop stop-color="#1162FF"/>
<stop offset="0.713542" stop-color="#51D5FF"/>
</linearGradient>
<linearGradient id="paint2_linear_3354_14964" x1="79.2959" y1="106.719" x2="107.307" y2="169.756" gradientUnits="userSpaceOnUse">
<stop stop-color="#3211FF"/>
<stop offset="0.713542" stop-color="#51ABFF"/>
</linearGradient>
<linearGradient id="paint3_linear_3354_14964" x1="174.152" y1="65.4671" x2="180.242" y2="66.394" gradientUnits="userSpaceOnUse">
<stop stop-color="#97BAFF"/>
<stop offset="0.906502" stop-color="#DDFBFF"/>
</linearGradient>
<linearGradient id="paint4_linear_3354_14964" x1="95.749" y1="68.3281" x2="96.2622" y2="76.9923" gradientUnits="userSpaceOnUse">
<stop stop-color="#0B004F"/>
<stop offset="1" stop-color="#5690C6"/>
</linearGradient>
<linearGradient id="paint5_linear_3354_14964" x1="101.655" y1="95.75" x2="107.909" y2="115.32" gradientUnits="userSpaceOnUse">
<stop stop-color="#1162FF"/>
<stop offset="0.713542" stop-color="#51D5FF"/>
</linearGradient>
<linearGradient id="paint6_linear_3354_14964" x1="74.2334" y1="105.875" x2="102.244" y2="168.912" gradientUnits="userSpaceOnUse">
<stop stop-color="#3211FF"/>
<stop offset="0.713542" stop-color="#51ABFF"/>
</linearGradient>
<linearGradient id="paint7_linear_3354_14964" x1="96.5928" y1="94.9063" x2="102.846" y2="114.477" gradientUnits="userSpaceOnUse">
<stop stop-color="#1162FF"/>
<stop offset="0.713542" stop-color="#51D5FF"/>
</linearGradient>
<linearGradient id="paint8_linear_3354_14964" x1="69.1709" y1="105.031" x2="97.1819" y2="168.069" gradientUnits="userSpaceOnUse">
<stop stop-color="#3211FF"/>
<stop offset="0.713542" stop-color="#51ABFF"/>
</linearGradient>
<linearGradient id="paint9_linear_3354_14964" x1="91.5303" y1="94.0625" x2="97.7837" y2="113.633" gradientUnits="userSpaceOnUse">
<stop stop-color="#1162FF"/>
<stop offset="0.713542" stop-color="#51D5FF"/>
</linearGradient>
<linearGradient id="paint10_linear_3354_14964" x1="64.1084" y1="104.188" x2="92.1194" y2="167.225" gradientUnits="userSpaceOnUse">
<stop stop-color="#3211FF"/>
<stop offset="0.713542" stop-color="#51ABFF"/>
</linearGradient>
<linearGradient id="paint11_linear_3354_14964" x1="86.4678" y1="93.2188" x2="92.7212" y2="112.789" gradientUnits="userSpaceOnUse">
<stop stop-color="#1162FF"/>
<stop offset="0.713542" stop-color="#51D5FF"/>
</linearGradient>
<linearGradient id="paint12_linear_3354_14964" x1="59.0459" y1="103.344" x2="87.0569" y2="166.381" gradientUnits="userSpaceOnUse">
<stop stop-color="#3211FF"/>
<stop offset="0.713542" stop-color="#51ABFF"/>
</linearGradient>
<linearGradient id="paint13_linear_3354_14964" x1="81.4053" y1="92.375" x2="87.6587" y2="111.945" gradientUnits="userSpaceOnUse">
<stop stop-color="#1162FF"/>
<stop offset="0.713542" stop-color="#51D5FF"/>
</linearGradient>
<linearGradient id="paint14_linear_3354_14964" x1="53.9834" y1="102.5" x2="81.9944" y2="165.537" gradientUnits="userSpaceOnUse">
<stop stop-color="#3211FF"/>
<stop offset="0.713542" stop-color="#51ABFF"/>
</linearGradient>
<linearGradient id="paint15_linear_3354_14964" x1="76.3428" y1="91.5313" x2="82.5962" y2="111.102" gradientUnits="userSpaceOnUse">
<stop stop-color="#1162FF"/>
<stop offset="0.713542" stop-color="#51D5FF"/>
</linearGradient>
<linearGradient id="paint16_linear_3354_14964" x1="48.9209" y1="101.656" x2="76.9319" y2="164.694" gradientUnits="userSpaceOnUse">
<stop stop-color="#3211FF"/>
<stop offset="0.713542" stop-color="#51ABFF"/>
</linearGradient>
<linearGradient id="paint17_linear_3354_14964" x1="175.905" y1="40.9063" x2="162.014" y2="90.0219" gradientUnits="userSpaceOnUse">
<stop stop-color="#2D71F7"/>
<stop offset="0.906502" stop-color="#34D8EE"/>
</linearGradient>
</defs>
</svg>
