<svg width="232" height="280" viewBox="0 0 232 280" fill="none" xmlns="http://www.w3.org/2000/svg">
<g filter="url(#filter0_i_3354_15064)">
<rect width="232" height="280" rx="20" fill="white"/>
</g>
<path d="M85.5664 239.219V256.582H84.082V239.219H85.5664ZM71.3867 252.402V241.367H77.9297V242.637H72.8711V251.113C75.3809 251.094 76.9629 251.006 78.8281 250.586L78.9844 251.895C76.9727 252.305 75.2734 252.393 72.4805 252.402H71.3867ZM76.7578 247.148V245.859H80.5469V239.648H82.0117V255.684H80.5469V247.148H76.7578ZM102.305 239.219V256.621H100.762V239.219H102.305ZM88.6328 246.621C88.6426 242.93 90.4785 240.576 93.0664 240.566C95.6445 240.576 97.5098 242.93 97.5 246.621C97.5098 250.322 95.6445 252.666 93.0664 252.656C90.4785 252.666 88.6426 250.322 88.6328 246.621ZM90.1172 246.621C90.1172 249.443 91.3281 251.299 93.0664 251.289C94.8145 251.299 96.0156 249.443 96.0156 246.621C96.0156 243.799 94.8145 241.943 93.0664 241.934C91.3281 241.943 90.1172 243.799 90.1172 246.621ZM119.668 239.219V256.621H118.145V247.051H114.473V245.781H118.145V239.219H119.668ZM106.074 252.422V240.82H114.18V242.09H107.617V245.703H113.418V246.953H107.617V251.152C110.801 251.143 112.852 251.055 115.234 250.625L115.41 251.895C112.881 252.305 110.762 252.422 107.402 252.422H106.074ZM143.398 247.969V249.219H136.23V251.211H141.445V256.523H139.902V252.461H129.336V251.211H134.727V249.219H127.578V247.969H143.398ZM128.516 245.82C131.768 245.498 134.521 244.15 134.648 242.168H129.219V240.938H134.727V239.141H136.23V240.938H141.797V242.168H136.328C136.436 244.15 139.18 245.498 142.461 245.82L141.953 246.992C139.092 246.689 136.533 245.645 135.488 243.877C134.424 245.645 131.865 246.689 129.023 246.992L128.516 245.82ZM150.898 242.422C150.898 244.678 152.637 246.836 155.176 247.715L154.375 248.926C152.422 248.223 150.908 246.768 150.166 244.98C149.414 246.973 147.803 248.574 145.742 249.336L144.941 248.125C147.5 247.207 149.355 244.893 149.355 242.441V241.68H145.43V240.43H154.785V241.68H150.898V242.422ZM147.578 251.816V250.547H159.258V256.582H157.715V251.816H147.578ZM154.238 245.059V243.77H157.715V239.219H159.258V249.629H157.715V245.059H154.238Z" fill="#747474"/>
<rect x="16" y="16" width="200" height="200" rx="12" fill="url(#paint0_linear_3354_15064)" fill-opacity="0.5"/>
<g filter="url(#filter1_d_3354_15064)">
<rect x="78.0312" y="164.967" width="73.4062" height="10.6489" fill="#8DD9FE"/>
<ellipse cx="114.734" cy="175.613" rx="36.7031" ry="9.58402" fill="url(#paint1_linear_3354_15064)"/>
<path d="M150.438 164.967C150.438 165.74 149.82 166.74 148.028 167.846C146.291 168.919 143.711 169.921 140.435 170.776C133.897 172.483 124.81 173.551 114.734 173.551C104.659 173.551 95.572 172.483 89.034 170.776C85.7575 169.921 83.1777 168.919 81.4409 167.846C79.6488 166.74 79.0312 165.74 79.0312 164.967C79.0312 164.194 79.6488 163.194 81.4409 162.087C83.1777 161.015 85.7575 160.013 89.034 159.157C95.572 157.45 104.659 156.383 114.734 156.383C124.81 156.383 133.897 157.45 140.435 159.157C143.711 160.013 146.291 161.015 148.028 162.087C149.82 163.194 150.438 164.194 150.438 164.967Z" fill="url(#paint2_linear_3354_15064)" stroke="white" stroke-width="2"/>
</g>
<g filter="url(#filter2_d_3354_15064)">
<rect x="78.0312" y="148.648" width="73.4062" height="10.6489" fill="#8DD9FE"/>
<ellipse cx="114.734" cy="159.297" rx="36.7031" ry="9.58402" fill="url(#paint3_linear_3354_15064)"/>
<path d="M150.438 148.648C150.438 149.421 149.82 150.422 148.028 151.528C146.291 152.6 143.711 153.602 140.435 154.458C133.897 156.165 124.81 157.232 114.734 157.232C104.659 157.232 95.572 156.165 89.034 154.458C85.7575 153.602 83.1777 152.6 81.4409 151.528C79.6488 150.422 79.0312 149.421 79.0312 148.648C79.0312 147.876 79.6488 146.875 81.4409 145.769C83.1777 144.697 85.7575 143.695 89.034 142.839C95.572 141.132 104.659 140.064 114.734 140.064C124.81 140.064 133.897 141.132 140.435 142.839C143.711 143.695 146.291 144.697 148.028 145.769C149.82 146.875 150.438 147.876 150.438 148.648Z" fill="url(#paint4_linear_3354_15064)" stroke="white" stroke-width="2"/>
</g>
<g filter="url(#filter3_d_3354_15064)">
<rect x="78.0312" y="132.334" width="73.4062" height="10.6489" fill="#8DD9FE"/>
<ellipse cx="114.734" cy="142.98" rx="36.7031" ry="9.58402" fill="url(#paint5_linear_3354_15064)"/>
<path d="M150.438 132.334C150.438 133.107 149.82 134.107 148.028 135.214C146.291 136.286 143.711 137.288 140.435 138.143C133.897 139.851 124.81 140.918 114.734 140.918C104.659 140.918 95.572 139.851 89.034 138.143C85.7575 137.288 83.1777 136.286 81.4409 135.214C79.6488 134.107 79.0312 133.107 79.0312 132.334C79.0312 131.561 79.6488 130.561 81.4409 129.454C83.1777 128.382 85.7575 127.38 89.034 126.525C95.572 124.817 104.659 123.75 114.734 123.75C124.81 123.75 133.897 124.817 140.435 126.525C143.711 127.38 146.291 128.382 148.028 129.454C149.82 130.561 150.438 131.561 150.438 132.334Z" fill="url(#paint6_linear_3354_15064)" stroke="#9CDCFF" stroke-width="2"/>
</g>
<path d="M115 82L115 121" stroke="black" stroke-width="2" stroke-linecap="round" stroke-dasharray="3 3"/>
<path fill-rule="evenodd" clip-rule="evenodd" d="M40.9062 51.2698V67.9688C40.9062 70.7302 43.1448 72.9688 45.9062 72.9688H74.7188C77.4802 72.9688 79.7188 70.7302 79.7188 67.9688V50.125C79.7188 47.3636 77.4802 45.125 74.7188 45.125H70.4372L63.6872 47.6562H46.8122C42.327 47.6562 41.043 49.6431 40.9062 51.2698Z" fill="url(#paint7_linear_3354_15064)"/>
<path d="M39.2188 56.0313C39.2188 53.2698 41.4573 51.0312 44.2187 51.0312H73.0313C75.7927 51.0312 78.0312 53.2698 78.0312 56.0312V78.0312H44.2187C41.4573 78.0312 39.2188 75.7927 39.2188 73.0313V56.0313Z" fill="url(#paint8_linear_3354_15064)"/>
<path d="M75.8613 51.6473L79.7185 48.8438V76.1035C79.7185 77.1686 78.855 78.032 77.7899 78.032V78.032C76.7248 78.032 75.8613 77.1686 75.8613 76.1035V51.6473Z" fill="url(#paint9_linear_3354_15064)"/>
<path fill-rule="evenodd" clip-rule="evenodd" d="M96.5938 51.2698V67.9688C96.5938 70.7302 98.8323 72.9688 101.594 72.9688H130.406C133.168 72.9688 135.406 70.7302 135.406 67.9688V50.125C135.406 47.3636 133.168 45.125 130.406 45.125H126.125L119.375 47.6562H102.5C98.0145 47.6562 96.7305 49.6431 96.5938 51.2698Z" fill="url(#paint10_linear_3354_15064)"/>
<path d="M94.9062 56.0313C94.9062 53.2698 97.1448 51.0312 99.9062 51.0312H128.719C131.48 51.0312 133.719 53.2698 133.719 56.0312V78.0312H99.9062C97.1448 78.0312 94.9062 75.7927 94.9062 73.0313V56.0313Z" fill="url(#paint11_linear_3354_15064)"/>
<path d="M131.549 51.6473L135.406 48.8438V76.1035C135.406 77.1686 134.543 78.032 133.477 78.032V78.032C132.412 78.032 131.549 77.1686 131.549 76.1035V51.6473Z" fill="url(#paint12_linear_3354_15064)"/>
<path fill-rule="evenodd" clip-rule="evenodd" d="M152.281 51.2698V67.9688C152.281 70.7302 154.52 72.9688 157.281 72.9688H186.094C188.855 72.9688 191.094 70.7302 191.094 67.9688V50.125C191.094 47.3636 188.855 45.125 186.094 45.125H181.812L175.062 47.6562H158.187C153.702 47.6562 152.418 49.6431 152.281 51.2698Z" fill="url(#paint13_linear_3354_15064)"/>
<path d="M150.594 56.0313C150.594 53.2698 152.832 51.0312 155.594 51.0312H184.406C187.168 51.0312 189.406 53.2698 189.406 56.0312V78.0312H155.594C152.832 78.0312 150.594 75.7927 150.594 73.0313V56.0313Z" fill="url(#paint14_linear_3354_15064)"/>
<path d="M187.236 51.6473L191.093 48.8438V76.1035C191.093 77.1686 190.23 78.032 189.165 78.032V78.032C188.1 78.032 187.236 77.1686 187.236 76.1035V51.6473Z" fill="url(#paint15_linear_3354_15064)"/>
<path d="M59.0114 82C59.0117 90.2394 57.9204 103.423 77.0071 103.423C107 103.423 107 117.155 107 121" stroke="black" stroke-width="2" stroke-linecap="round" stroke-dasharray="3 3"/>
<path d="M170.989 82C170.988 90.2394 172.08 103.423 152.993 103.423C123 103.423 123 117.155 123 121" stroke="black" stroke-width="2" stroke-linecap="round" stroke-dasharray="3 3"/>
<defs>
<filter id="filter0_i_3354_15064" x="0" y="0" width="232" height="280" filterUnits="userSpaceOnUse" color-interpolation-filters="sRGB">
<feFlood flood-opacity="0" result="BackgroundImageFix"/>
<feBlend mode="normal" in="SourceGraphic" in2="BackgroundImageFix" result="shape"/>
<feColorMatrix in="SourceAlpha" type="matrix" values="0 0 0 0 0 0 0 0 0 0 0 0 0 0 0 0 0 0 127 0" result="hardAlpha"/>
<feMorphology radius="1" operator="erode" in="SourceAlpha" result="effect1_innerShadow_3354_15064"/>
<feOffset/>
<feGaussianBlur stdDeviation="1"/>
<feComposite in2="hardAlpha" operator="arithmetic" k2="-1" k3="1"/>
<feColorMatrix type="matrix" values="0 0 0 0 0 0 0 0 0 0 0 0 0 0 0 0 0 0 0.1 0"/>
<feBlend mode="normal" in2="shape" result="effect1_innerShadow_3354_15064"/>
</filter>
<filter id="filter1_d_3354_15064" x="73.0312" y="152.383" width="83.4062" height="39.8145" filterUnits="userSpaceOnUse" color-interpolation-filters="sRGB">
<feFlood flood-opacity="0" result="BackgroundImageFix"/>
<feColorMatrix in="SourceAlpha" type="matrix" values="0 0 0 0 0 0 0 0 0 0 0 0 0 0 0 0 0 0 127 0" result="hardAlpha"/>
<feOffset dy="2"/>
<feGaussianBlur stdDeviation="2.5"/>
<feComposite in2="hardAlpha" operator="out"/>
<feColorMatrix type="matrix" values="0 0 0 0 0 0 0 0 0 0 0 0 0 0 0 0 0 0 0.12 0"/>
<feBlend mode="normal" in2="BackgroundImageFix" result="effect1_dropShadow_3354_15064"/>
<feBlend mode="normal" in="SourceGraphic" in2="effect1_dropShadow_3354_15064" result="shape"/>
</filter>
<filter id="filter2_d_3354_15064" x="73.0312" y="136.064" width="83.4062" height="39.8164" filterUnits="userSpaceOnUse" color-interpolation-filters="sRGB">
<feFlood flood-opacity="0" result="BackgroundImageFix"/>
<feColorMatrix in="SourceAlpha" type="matrix" values="0 0 0 0 0 0 0 0 0 0 0 0 0 0 0 0 0 0 127 0" result="hardAlpha"/>
<feOffset dy="2"/>
<feGaussianBlur stdDeviation="2.5"/>
<feComposite in2="hardAlpha" operator="out"/>
<feColorMatrix type="matrix" values="0 0 0 0 0 0 0 0 0 0 0 0 0 0 0 0 0 0 0.12 0"/>
<feBlend mode="normal" in2="BackgroundImageFix" result="effect1_dropShadow_3354_15064"/>
<feBlend mode="normal" in="SourceGraphic" in2="effect1_dropShadow_3354_15064" result="shape"/>
</filter>
<filter id="filter3_d_3354_15064" x="73.0312" y="119.75" width="83.4062" height="39.8145" filterUnits="userSpaceOnUse" color-interpolation-filters="sRGB">
<feFlood flood-opacity="0" result="BackgroundImageFix"/>
<feColorMatrix in="SourceAlpha" type="matrix" values="0 0 0 0 0 0 0 0 0 0 0 0 0 0 0 0 0 0 127 0" result="hardAlpha"/>
<feOffset dy="2"/>
<feGaussianBlur stdDeviation="2.5"/>
<feComposite in2="hardAlpha" operator="out"/>
<feColorMatrix type="matrix" values="0 0 0 0 0 0 0 0 0 0 0 0 0 0 0 0 0 0 0.12 0"/>
<feBlend mode="normal" in2="BackgroundImageFix" result="effect1_dropShadow_3354_15064"/>
<feBlend mode="normal" in="SourceGraphic" in2="effect1_dropShadow_3354_15064" result="shape"/>
</filter>
<linearGradient id="paint0_linear_3354_15064" x1="216" y1="216" x2="-24.1184" y2="135.153" gradientUnits="userSpaceOnUse">
<stop stop-color="#EAF8FF"/>
<stop offset="1" stop-color="#EAF8FF" stop-opacity="0"/>
</linearGradient>
<linearGradient id="paint1_linear_3354_15064" x1="114.734" y1="166.029" x2="114.734" y2="185.197" gradientUnits="userSpaceOnUse">
<stop stop-color="#6BD3FF"/>
<stop offset="1" stop-color="#C9E3FC"/>
</linearGradient>
<linearGradient id="paint2_linear_3354_15064" x1="114.734" y1="155.383" x2="114.734" y2="174.551" gradientUnits="userSpaceOnUse">
<stop stop-color="#6BA6FF"/>
<stop offset="1" stop-color="#BAD6FF"/>
</linearGradient>
<linearGradient id="paint3_linear_3354_15064" x1="114.734" y1="149.713" x2="114.734" y2="168.881" gradientUnits="userSpaceOnUse">
<stop stop-color="#6BD3FF"/>
<stop offset="1" stop-color="#C9E3FC"/>
</linearGradient>
<linearGradient id="paint4_linear_3354_15064" x1="114.734" y1="139.064" x2="114.734" y2="158.232" gradientUnits="userSpaceOnUse">
<stop stop-color="#6BA6FF"/>
<stop offset="1" stop-color="#BAD6FF"/>
</linearGradient>
<linearGradient id="paint5_linear_3354_15064" x1="114.734" y1="133.396" x2="114.734" y2="152.565" gradientUnits="userSpaceOnUse">
<stop stop-color="#6BD3FF"/>
<stop offset="1" stop-color="#C9E3FC"/>
</linearGradient>
<linearGradient id="paint6_linear_3354_15064" x1="114.734" y1="122.75" x2="114.734" y2="141.918" gradientUnits="userSpaceOnUse">
<stop stop-color="#4F32FF"/>
<stop offset="1" stop-color="#51ABFF"/>
</linearGradient>
<linearGradient id="paint7_linear_3354_15064" x1="60.4339" y1="51.9933" x2="60.4339" y2="45.5543" gradientUnits="userSpaceOnUse">
<stop stop-color="#98E3F3"/>
<stop offset="1" stop-color="#72CEE2"/>
</linearGradient>
<linearGradient id="paint8_linear_3354_15064" x1="60.0199" y1="60.1337" x2="46.2905" y2="77.2573" gradientUnits="userSpaceOnUse">
<stop stop-color="#BCD3FF"/>
<stop offset="0.906502" stop-color="#CAF9FF"/>
</linearGradient>
<linearGradient id="paint9_linear_3354_15064" x1="78.0309" y1="78.0322" x2="76.2262" y2="40.9952" gradientUnits="userSpaceOnUse">
<stop stop-color="#7E9CE8"/>
<stop offset="0.797626" stop-color="#8DC0EF"/>
</linearGradient>
<linearGradient id="paint10_linear_3354_15064" x1="116.121" y1="51.9933" x2="116.121" y2="45.5543" gradientUnits="userSpaceOnUse">
<stop stop-color="#98E3F3"/>
<stop offset="1" stop-color="#72CEE2"/>
</linearGradient>
<linearGradient id="paint11_linear_3354_15064" x1="115.707" y1="60.1337" x2="101.978" y2="77.2573" gradientUnits="userSpaceOnUse">
<stop stop-color="#BCD3FF"/>
<stop offset="0.906502" stop-color="#CAF9FF"/>
</linearGradient>
<linearGradient id="paint12_linear_3354_15064" x1="133.718" y1="78.0322" x2="131.914" y2="40.9952" gradientUnits="userSpaceOnUse">
<stop stop-color="#7E9CE8"/>
<stop offset="0.797626" stop-color="#8DC0EF"/>
</linearGradient>
<linearGradient id="paint13_linear_3354_15064" x1="171.809" y1="51.9933" x2="171.809" y2="45.5543" gradientUnits="userSpaceOnUse">
<stop stop-color="#98E3F3"/>
<stop offset="1" stop-color="#72CEE2"/>
</linearGradient>
<linearGradient id="paint14_linear_3354_15064" x1="171.395" y1="60.1337" x2="157.665" y2="77.2573" gradientUnits="userSpaceOnUse">
<stop stop-color="#BCD3FF"/>
<stop offset="0.906502" stop-color="#CAF9FF"/>
</linearGradient>
<linearGradient id="paint15_linear_3354_15064" x1="189.406" y1="78.0322" x2="187.601" y2="40.9952" gradientUnits="userSpaceOnUse">
<stop stop-color="#7E9CE8"/>
<stop offset="0.797626" stop-color="#8DC0EF"/>
</linearGradient>
</defs>
</svg>
