<svg width="32" height="32" viewBox="0 0 32 32" fill="none" xmlns="http://www.w3.org/2000/svg">
<circle cx="15.9996" cy="11.6666" r="6.4" fill="#989898"/>
<path d="M23.9762 29.3984C24.2624 29.2594 28.9221 25.2726 28.7967 24.9988C27.9694 23.1927 26.1684 22.2422 24.0418 21.081C21.728 19.8176 18.893 19.1328 15.9765 19.1328C13.06 19.1328 10.225 19.8176 7.91124 21.081C5.78463 22.2422 4.02909 23.1927 3.20176 24.9988C3.07635 25.2726 7.62544 29.2594 7.91171 29.3984C11.2006 30.8649 13.8965 32.0088 16 31.999C18.0818 31.9894 20.7985 30.8649 23.9762 29.3984Z" fill="#989898"/>
<path d="M31 16C31 24.2843 24.2843 31 16 31C7.71573 31 1 24.2843 1 16C1 7.71573 7.71573 1 16 1C24.2843 1 31 7.71573 31 16Z" stroke="#989898" stroke-width="2"/>
</svg>
