<svg width="375" height="44" viewBox="0 0 375 44" fill="none" xmlns="http://www.w3.org/2000/svg">
<rect width="375" height="44" fill="white"/>
<path d="M47.0034 19.7231C49.5601 19.7231 51.7847 21.541 51.7847 25.8574V25.874C51.7847 29.9082 49.9668 32.2988 46.9536 32.2988C44.7539 32.2988 43.1104 30.9956 42.7285 29.1611L42.7119 29.0698H44.8203L44.8452 29.1528C45.1606 29.9912 45.8994 30.5391 46.9536 30.5391C48.8545 30.5391 49.6597 28.6797 49.751 26.3887C49.751 26.2974 49.7593 26.2061 49.7593 26.1147H49.5933C49.1533 27.061 48.1074 27.8994 46.4639 27.8994C44.1646 27.8994 42.5542 26.2227 42.5542 23.9482V23.9316C42.5542 21.4995 44.4053 19.7231 47.0034 19.7231ZM46.9951 26.2559C48.3481 26.2559 49.3857 25.2764 49.3857 23.9233V23.9067C49.3857 22.5371 48.3481 21.4663 47.02 21.4663C45.7002 21.4663 44.646 22.5205 44.646 23.8569V23.8735C44.646 25.2598 45.6338 26.2559 46.9951 26.2559ZM54.8732 24.2388C54.1179 24.2388 53.5534 23.6577 53.5534 22.9272C53.5534 22.1885 54.1179 21.6157 54.8732 21.6157C55.6369 21.6157 56.193 22.1885 56.193 22.9272C56.193 23.6577 55.6369 24.2388 54.8732 24.2388ZM54.8732 30.3979C54.1179 30.3979 53.5534 29.8252 53.5534 29.0864C53.5534 28.3477 54.1179 27.7749 54.8732 27.7749C55.6369 27.7749 56.193 28.3477 56.193 29.0864C56.193 29.8252 55.6369 30.3979 54.8732 30.3979ZM63.7723 32V29.7007H57.912V27.9492C59.4642 25.2515 61.1659 22.4956 62.7928 20.022H65.8226V27.9326H67.433V29.7007H65.8226V32H63.7723ZM59.9042 27.9824H63.8055V21.7319H63.681C62.4525 23.6079 61.0663 25.8242 59.9042 27.8579V27.9824ZM71.7168 32V22.1304H71.5757L68.5957 24.2388V22.2217L71.7251 20.022H73.8584V32H71.7168Z" fill="black"/>
<g clip-path="url(#clip0_2628_11921)">
<rect x="294.85" y="19" width="3.2" height="12" rx="1" fill="black"/>
<rect x="289.55" y="21.4004" width="3.2" height="9.6" rx="1" fill="black"/>
<rect x="284.25" y="24" width="3.2" height="7" rx="1" fill="black"/>
<rect x="278.95" y="26.4004" width="3.2" height="4.6" rx="1" fill="black"/>
</g>
<path d="M312.508 27.1328C313.211 27.1328 313.895 27.3177 314.497 27.6701L314.741 27.8129C314.926 27.9212 314.958 28.1746 314.807 28.3259L312.723 30.4036C312.595 30.5312 312.388 30.5312 312.26 30.4036L310.19 28.3392C310.039 28.1886 310.07 27.9365 310.254 27.8274L310.495 27.684C311.103 27.3226 311.795 27.1328 312.508 27.1328Z" fill="black"/>
<path d="M312.508 23.3164C314.258 23.3164 315.938 23.8969 317.306 24.972L317.5 25.1239C317.654 25.245 317.668 25.4733 317.529 25.6117L316.285 26.8521C316.17 26.9668 315.988 26.98 315.857 26.8831L315.706 26.7704C314.781 26.0833 313.667 25.7148 312.508 25.7148C311.341 25.7148 310.22 26.0879 309.293 26.7828L309.141 26.8966C309.011 26.9943 308.828 26.9814 308.712 26.8664L307.469 25.6264C307.331 25.4883 307.344 25.2606 307.497 25.1393L307.69 24.9872C309.061 23.9026 310.749 23.3164 312.508 23.3164Z" fill="black"/>
<path d="M312.508 19.5C315.285 19.5 317.941 20.4796 320.043 22.2752L320.223 22.4285C320.368 22.5524 320.376 22.7731 320.241 22.9078L319.001 24.1441C318.881 24.2639 318.689 24.2723 318.559 24.1635L318.406 24.0351C316.75 22.6512 314.676 21.8984 312.508 21.8984C310.333 21.8984 308.252 22.6564 306.594 24.049L306.441 24.178C306.31 24.2873 306.118 24.2791 305.998 24.1591L304.758 22.9229C304.623 22.7885 304.632 22.5681 304.776 22.4441L304.955 22.2908C307.06 20.4855 309.723 19.5 312.508 19.5Z" fill="black"/>
<rect x="328.5" y="20.5" width="21" height="9" rx="1.33" fill="black"/>
<path opacity="0.4" fill-rule="evenodd" clip-rule="evenodd" d="M332.1 19.5H345.9C346.897 19.5 347.584 19.5008 348.117 19.5444C348.639 19.587 348.925 19.6655 349.135 19.7725C349.605 20.0122 349.988 20.3946 350.228 20.865C350.334 21.0749 350.413 21.3608 350.456 21.8826C350.499 22.4161 350.5 23.1034 350.5 24.1V25.9C350.5 26.8966 350.499 27.5839 350.456 28.1174C350.413 28.6392 350.334 28.9251 350.228 29.135C349.988 29.6054 349.605 29.9878 349.135 30.2275C348.925 30.3345 348.639 30.413 348.117 30.4556C347.584 30.4992 346.897 30.5 345.9 30.5H332.1C331.103 30.5 330.416 30.4992 329.883 30.4556C329.361 30.413 329.075 30.3345 328.865 30.2275C328.395 29.9878 328.012 29.6054 327.772 29.135C327.666 28.9251 327.587 28.6392 327.544 28.1174C327.501 27.5839 327.5 26.8966 327.5 25.9V24.1C327.5 23.1034 327.501 22.4161 327.544 21.8826C327.587 21.3608 327.666 21.0749 327.772 20.865C328.012 20.3946 328.395 20.0122 328.865 19.7725C329.075 19.6655 329.361 19.587 329.883 19.5444C330.416 19.5008 331.103 19.5 332.1 19.5ZM326.5 24.1C326.5 22.1398 326.5 21.1597 326.881 20.411C327.217 19.7525 327.752 19.217 328.411 18.8815C329.16 18.5 330.14 18.5 332.1 18.5H345.9C347.86 18.5 348.84 18.5 349.589 18.8815C350.248 19.217 350.783 19.7525 351.119 20.411C351.5 21.1597 351.5 22.1398 351.5 24.1V25.9C351.5 27.8602 351.5 28.8403 351.119 29.589C350.783 30.2475 350.248 30.783 349.589 31.1185C348.84 31.5 347.86 31.5 345.9 31.5H332.1C330.14 31.5 329.16 31.5 328.411 31.1185C327.752 30.783 327.217 30.2475 326.881 29.589C326.5 28.8403 326.5 27.8602 326.5 25.9V24.1ZM352.5 27C353.328 26.8 354 26.1046 354 25C354 23.8954 353.328 23.2 352.5 23L352.5 25L352.5 27Z" fill="black"/>
<defs>
<clipPath id="clip0_2628_11921">
<rect width="20" height="14" fill="white" transform="translate(278.5 18)"/>
</clipPath>
</defs>
</svg>
