<svg width="72" height="32" viewBox="0 0 72 32" fill="none" xmlns="http://www.w3.org/2000/svg">
<rect x="0.5" y="0.5" width="71" height="31" rx="3.5" fill="white" stroke="#BCBCBC" stroke-linejoin="round" stroke-dasharray="1 1"/>
<g filter="url(#filter0_i_2513_12291)">
<path d="M16.5815 8.25053C16.2658 7.91649 15.7342 7.91649 15.4185 8.25053L8.22014 15.8679C7.73807 16.378 8.09972 17.2173 8.80159 17.2173H12.3807V25.2011C12.3807 25.6429 12.7389 26.0011 13.1807 26.0011H18.8194C19.2612 26.0011 19.6194 25.6429 19.6194 25.2011V17.2173H23.1984C23.9003 17.2173 24.2619 16.378 23.7799 15.8679L16.5815 8.25053Z" fill="#E0E0E0"/>
</g>
<path d="M39.1837 20.9999H33.3633V11.0994H34.5912V19.9074H39.1837V20.9999Z" fill="#BCBCBC"/>
<path d="M43.7093 21.1546C41.6886 21.1546 40.3254 19.627 40.3254 17.3259C40.3254 15.0054 41.6886 13.4778 43.7093 13.4778C45.7301 13.4778 47.0836 15.0054 47.0836 17.3259C47.0836 19.627 45.7301 21.1546 43.7093 21.1546ZM43.7093 20.1104C45.208 20.1104 45.9041 18.8052 45.9041 17.3259C45.9041 15.8466 45.208 14.522 43.7093 14.522C42.2011 14.522 41.5049 15.8466 41.5049 17.3259C41.5049 18.8052 42.2011 20.1104 43.7093 20.1104Z" fill="#BCBCBC"/>
<path d="M51.6334 23.9391C49.835 23.9391 48.6168 23.156 48.4814 21.7734H49.719C49.8737 22.5372 50.5795 22.9143 51.6334 22.9143C52.8999 22.9143 53.6831 22.3632 53.6831 21.1353V19.627H53.5864C53.335 20.0427 52.8613 20.8839 51.4207 20.8839C49.6223 20.8839 48.2687 19.5206 48.2687 17.1905C48.2687 14.8991 49.574 13.4778 51.44 13.4778C52.8806 13.4778 53.3447 14.3577 53.6057 14.7541H53.7121V13.5745H54.853V21.203C54.853 23.1173 53.4414 23.9391 51.6334 23.9391ZM51.5947 19.8397C52.9483 19.8397 53.7024 18.8632 53.7024 17.2292C53.7024 15.6339 52.9676 14.5317 51.5947 14.5317C50.1637 14.5317 49.4579 15.7306 49.4579 17.2292C49.4579 18.7665 50.1831 19.8397 51.5947 19.8397Z" fill="#BCBCBC"/>
<path d="M59.7601 21.1546C57.7394 21.1546 56.3761 19.627 56.3761 17.3259C56.3761 15.0054 57.7394 13.4778 59.7601 13.4778C61.7808 13.4778 63.1344 15.0054 63.1344 17.3259C63.1344 19.627 61.7808 21.1546 59.7601 21.1546ZM59.7601 20.1104C61.2587 20.1104 61.9549 18.8052 61.9549 17.3259C61.9549 15.8466 61.2587 14.522 59.7601 14.522C58.2518 14.522 57.5557 15.8466 57.5557 17.3259C57.5557 18.8052 58.2518 20.1104 59.7601 20.1104Z" fill="#BCBCBC"/>
<defs>
<filter id="filter0_i_2513_12291" x="8" y="8" width="16" height="18.0011" filterUnits="userSpaceOnUse" color-interpolation-filters="sRGB">
<feFlood flood-opacity="0" result="BackgroundImageFix"/>
<feBlend mode="normal" in="SourceGraphic" in2="BackgroundImageFix" result="shape"/>
<feColorMatrix in="SourceAlpha" type="matrix" values="0 0 0 0 0 0 0 0 0 0 0 0 0 0 0 0 0 0 127 0" result="hardAlpha"/>
<feOffset/>
<feGaussianBlur stdDeviation="1"/>
<feComposite in2="hardAlpha" operator="arithmetic" k2="-1" k3="1"/>
<feColorMatrix type="matrix" values="0 0 0 0 0 0 0 0 0 0 0 0 0 0 0 0 0 0 0.25 0"/>
<feBlend mode="normal" in2="shape" result="effect1_innerShadow_2513_12291"/>
</filter>
</defs>
</svg>
